<svg xmlns="http://www.w3.org/2000/svg" width="19.332" height="22" viewBox="0 0 19.332 22">
    <g id="apple" transform="translate(-31.049)">
        <path id="Path_60" data-name="Path 60"
              d="M48.888,7.318c.173-.318.463-.857,1.147-2.111a.645.645,0,0,0-.258-.875L47.472,3.077a4.518,4.518,0,0,0-5.305.734,9.339,9.339,0,0,1,1.2-2.035A.645.645,0,1,0,42.353.982,10.638,10.638,0,0,0,41.1,3.024,4.52,4.52,0,0,0,36.845,0H34.269a.645.645,0,0,0-.645.645V3.27a4.49,4.49,0,0,0,.815,2.585c-2.848,1.362-3.841,4.494-3.206,7.7.814,4.11,4.7,10.489,9.478,7.8,4.709,2.649,8.639-3.566,9.478-7.8a7.255,7.255,0,0,0-1.3-6.239ZM42.486,5.5a3.226,3.226,0,0,1,4.371-1.292l1.739.946c-.31.57-.519.955-.663,1.221l-.017.032a5.811,5.811,0,0,0-5.5-.783ZM34.913,1.29h1.931a3.227,3.227,0,0,1,3.223,3.224V6.494H38.136A3.227,3.227,0,0,1,34.913,3.27ZM48.926,13.307a12.6,12.6,0,0,1-2.54,5.371c-.733.881-2.206,2.313-3.828,2a4.031,4.031,0,0,1-1.488-.613.644.644,0,0,0-.716,0,3.73,3.73,0,0,1-1.946.656c-1.437,0-2.706-1.248-3.37-2.045a12.6,12.6,0,0,1-2.54-5.371c-.608-3.072.524-5.565,2.894-6.456a4.487,4.487,0,0,0,2.744.934h2a.644.644,0,0,0,1.023.119,4.713,4.713,0,0,1,4.013-1.294c3.1.593,4.4,3.441,3.756,6.7Z"
              transform="translate(0)"/>
    </g>
</svg>
