<svg xmlns="http://www.w3.org/2000/svg" width="22" height="15.43" viewBox="0 0 22 15.43">
    <path id="car"
          d="M22,78.792l-4.271-1.424L15.4,72.421H4.923L0,77.651v7.262H2.326a3.1,3.1,0,0,0,6.182,0h4.984a3.1,3.1,0,0,0,6.182,0H22Zm-5.835-1.551H9.7V73.782h4.84ZM5.51,73.782H8.336v3.459H2.255ZM5.417,86.49a1.734,1.734,0,1,1,1.734-1.734A1.736,1.736,0,0,1,5.417,86.49Zm11.166,0a1.734,1.734,0,1,1,1.734-1.734A1.736,1.736,0,0,1,16.583,86.49Zm4.056-2.937h-1.2a3.1,3.1,0,0,0-5.7,0H8.268a3.1,3.1,0,0,0-5.7,0h-1.2V78.6H17.127l3.512,1.171Z"
          transform="translate(0 -72.421)"/>
</svg>
