<svg xmlns="http://www.w3.org/2000/svg" width="21.133" height="22" viewBox="0 0 21.133 22">
    <g id="cat" transform="translate(-10.083 0)">
        <path id="Path_74" data-name="Path 74"
              d="M28.892,7.612a2.328,2.328,0,0,0-2.325,2.325v9.739a1.037,1.037,0,0,1-1.036,1.036h-.306V17.816a4.794,4.794,0,0,0-1.508-3.483,3.5,3.5,0,0,1-1.1-2.543V10.267a6.075,6.075,0,0,0,1.148-3.56V0H22.008L19.74,2.387H15.567L13.3,0H11.545V6.707a6.075,6.075,0,0,0,1.148,3.56V11.79a3.5,3.5,0,0,1-1.1,2.543,4.794,4.794,0,0,0-1.508,3.483V22H25.531a2.328,2.328,0,0,0,2.325-2.325V9.937a1.036,1.036,0,1,1,2.072,0v1.869h1.289V9.937A2.327,2.327,0,0,0,28.892,7.612ZM12.834,1.382l2.18,2.294h5.28l2.18-2.294V6.707A4.827,4.827,0,0,1,18.3,11.484V9.5h1.076V8.216H15.933V9.5h1.076v1.979a4.827,4.827,0,0,1-4.175-4.776V1.382Zm11.1,19.329H22.615v-.843a2.2,2.2,0,0,0-1.666-2.134V15.161H19.66v3.8h.756a.911.911,0,0,1,.91.91v.843H18.3V17.089H17.009v3.622H13.982v-.843a.911.911,0,0,1,.91-.91h.756v-3.8H14.358v2.573a2.2,2.2,0,0,0-1.666,2.134v.843H11.372V17.816a3.5,3.5,0,0,1,1.1-2.543,4.794,4.794,0,0,0,1.508-3.483v-.2a6.1,6.1,0,0,0,7.344,0v.2a4.794,4.794,0,0,0,1.508,3.483,3.5,3.5,0,0,1,1.1,2.543Z"/>
    </g>
</svg>
