<svg xmlns="http://www.w3.org/2000/svg" width="21.401" height="17" viewBox="0 0 21.401 17">
    <g id="drill" transform="translate(0 -52.643)">
        <path id="Path_72" data-name="Path 72"
              d="M21.4,52.643H7.111v1.409l-2.928.837v1.519H0v1.254H4.183v1.519l2.928.837v1.409h5.506v2.51h2.51v1.943H11.362v3.764h8.784V61.427H21.4ZM5.437,58.235v-2.4l1.674-.478v3.357ZM8.365,53.9H9.621v6.276H8.365Zm5.506,8.786V61.427h1.256v1.256Zm5.021,5.706H12.616V67.133h6.276Zm0-2.51H16.381V61.427h2.511Zm1.255-5.706H10.875V53.9h9.272Z"
              transform="translate(0 0)"/>
        <path id="Path_73" data-name="Path 73" d="M391.952,112.643h2.51V113.9h-2.51Z"
              transform="translate(-375.569 -57.492)"/>
    </g>
</svg>
