<svg xmlns="http://www.w3.org/2000/svg" width="22" height="17.707" viewBox="0 0 22 17.707">
    <g id="XMLID_909_" transform="translate(0 -40)">
        <path id="XMLID_910_"
              d="M19.317,45.1h-.671V42.951A2.955,2.955,0,0,0,15.7,40H6.3a2.955,2.955,0,0,0-2.951,2.951V45.1H2.683a2.683,2.683,0,1,0,0,5.366V56.1H4.427v1.61h1.61V56.1h9.927v1.61h1.61V56.1h1.744V50.463a2.683,2.683,0,0,0,0-5.366Zm0,3.756h-1.61v5.634H4.293V48.854H2.683a1.073,1.073,0,0,1,0-2.146H5.9v6.171H16.1V46.707h3.22a1.073,1.073,0,0,1,0,2.146Zm-14.354-5.9A1.343,1.343,0,0,1,6.3,41.61H15.7a1.343,1.343,0,0,1,1.341,1.341V45.1H14.488v2.951H7.512V45.1H4.963Zm2.549,6.707h6.976v1.61H7.512Z"/>
    </g>
</svg>
