<svg xmlns="http://www.w3.org/2000/svg" width="22.357" height="16.36" viewBox="0 0 22.357 16.36">
    <g id="game-controller" transform="translate(0 -68.675)">
        <path id="Path_79" data-name="Path 79"
              d="M71.007,142.52h1.31v-1.53h1.53v-1.31h-1.53v-1.53h-1.31v1.53h-1.53v1.31h1.53Z"
              transform="translate(-66.443 -66.441)"/>
        <path id="Path_80" data-name="Path 80" d="M392.483,203.215h1.311v1.31h-1.311Z"
              transform="translate(-375.345 -128.665)"/>
        <path id="Path_81" data-name="Path 81" d="M362.46,143.167h1.311v1.31H362.46Z"
              transform="translate(-346.633 -71.239)"/>
        <path id="Path_82" data-name="Path 82" d="M271.012,130.483h1.311v1.31h-1.311Z"
              transform="translate(-259.178 -59.109)"/>
        <path id="Path_83" data-name="Path 83" d="M210.964,130.483h1.311v1.31h-1.311Z"
              transform="translate(-201.752 -59.109)"/>
        <path id="Path_84" data-name="Path 84"
              d="M17.138,68.675H5.219A5.225,5.225,0,0,0,0,73.894v7.851a3.29,3.29,0,0,0,6.426,1L7.45,79.513a1.964,1.964,0,0,0,2.96-.969h1.537a1.964,1.964,0,0,0,2.96.969l1.024,3.226a3.29,3.29,0,0,0,6.426-1V73.894A5.225,5.225,0,0,0,17.138,68.675ZM5.219,69.985H17.138a3.909,3.909,0,1,1,0,7.818,3.874,3.874,0,0,1-1.4-.259,1.966,1.966,0,0,0-3.788-.31H10.41a1.966,1.966,0,0,0-3.788.31,3.873,3.873,0,0,1-1.4.259,3.909,3.909,0,0,1,0-7.818ZM5.178,82.343a1.98,1.98,0,0,1-3.868-.6v-4.4a5.225,5.225,0,0,0,4.924,1.667Zm3.379-3.8a.656.656,0,1,1,.656-.656A.657.657,0,0,1,8.556,78.545Zm5.244,0a.656.656,0,1,1,.656-.656A.657.657,0,0,1,13.8,78.545Zm7.246,3.2a1.98,1.98,0,0,1-3.868.6l-1.056-3.329a5.224,5.224,0,0,0,4.924-1.667v4.4Z"/>
    </g>
</svg>
