<svg id="meds" xmlns="http://www.w3.org/2000/svg" width="21.98" height="21.981" viewBox="0 0 21.98 21.981">
    <path id="Path_61" data-name="Path 61"
          d="M20.282,1.7a5.8,5.8,0,0,0-8.2,0L6.891,6.891,1.7,12.084a5.8,5.8,0,1,0,8.2,8.2l5.193-5.192L20.282,9.9a5.8,5.8,0,0,0,0-8.2ZM8.8,19.19a4.252,4.252,0,0,1-6.013-6.013L7.437,8.531l6.013,6.014ZM19.189,8.8l-4.646,4.646L8.53,7.437l4.646-4.646A4.252,4.252,0,0,1,19.189,8.8Zm0,0"/>
    <path id="Path_62" data-name="Path 62"
          d="M315.379,60.663a.773.773,0,0,1-.639-.336,1.933,1.933,0,0,0-2.964-.277.773.773,0,0,1-1.093-1.093,3.479,3.479,0,0,1,5.332.5.773.773,0,0,1-.637,1.21Zm0,0"
          transform="translate(-297.128 -55.45)"/>
</svg>
