<svg xmlns="http://www.w3.org/2000/svg" width="16.295" height="22" viewBox="0 0 16.295 22">
    <g id="pot" transform="translate(-66.387 0)">
        <g id="Group_67" data-name="Group 67" transform="translate(66.387 0)">
            <path id="Path_57" data-name="Path 57"
                  d="M75.179,8.537V4.423A4.991,4.991,0,0,0,77.24,4.9a4.143,4.143,0,0,0,1.076-.141,5.1,5.1,0,0,0,3.146-2.925l.168-.437L81.265,1.1a5.1,5.1,0,0,0-4.187-.96,4.639,4.639,0,0,0-2.544,1.85A4.638,4.638,0,0,0,71.99.141,5.1,5.1,0,0,0,67.8,1.1L67.44,1.4l.168.437a5.1,5.1,0,0,0,3.146,2.925,4.141,4.141,0,0,0,1.076.141,4.991,4.991,0,0,0,2.061-.475V8.537h-7.5v4.011h1.65L68.877,22H80.192l.84-9.452h1.65V8.537h-7.5Zm2.233-7.151a3.568,3.568,0,0,1,2.613.439,3.568,3.568,0,0,1-2.043,1.687,3.569,3.569,0,0,1-2.615-.441A3.542,3.542,0,0,1,77.412,1.386ZM71.087,3.511a3.568,3.568,0,0,1-2.043-1.687,3.567,3.567,0,0,1,2.613-.439A3.568,3.568,0,0,1,73.7,3.072,3.568,3.568,0,0,1,71.087,3.511Zm7.925,17.2H70.057l-.725-8.163H79.738ZM67.676,11.259V9.826H81.393v1.433Z"
                  transform="translate(-66.387 0)"/>
        </g>
    </g>
</svg>
