<svg xmlns="http://www.w3.org/2000/svg" width="16.758" height="22" viewBox="0 0 16.758 22">
    <path id="ring"
          d="M0,13.578a8.379,8.379,0,1,0,16.758,0A8.449,8.449,0,0,0,10.85,5.53l2.308-2.307L9.935,0H6.823L3.6,3.223,5.908,5.53A8.448,8.448,0,0,0,0,13.578ZM9.4,5.156H9.023V3.867H10.69Zm-1.667,0H7.357L6.068,3.867H7.734Zm2.578,5.156V9.464a4.624,4.624,0,0,1,2.578,4.114,4.512,4.512,0,1,1-9.023,0A4.624,4.624,0,0,1,6.445,9.464v.849ZM9.023,9.023H7.734V6.475c.212-.019.427-.03.645-.03s.432.01.645.03ZM7.357,1.289H9.4L10.69,2.578H6.068ZM6.445,6.715V8.067A5.851,5.851,0,0,0,8.379,19.422,5.851,5.851,0,0,0,10.313,8.067V6.715a7.127,7.127,0,1,1-9.023,6.863A7.14,7.14,0,0,1,6.445,6.715Zm0,0"/>
</svg>
