<svg xmlns="http://www.w3.org/2000/svg" width="22" height="20.182" viewBox="0 0 22 20.182">
    <g id="shopping-cart" transform="translate(0 -21.155)">
        <g id="Group_77" data-name="Group 77" transform="translate(0 21.155)">
            <path id="Path_90" data-name="Path 90"
                  d="M17.362,36.715H8.532l-.546-2.183h11.54L22,24.634H5.511l-.87-3.479H0v1.3H3.63L7.209,36.767A2.312,2.312,0,1,0,9.77,38.011h5.516a2.311,2.311,0,1,0,2.076-1.3ZM5.835,25.93h14.5l-1.827,7.306H7.662ZM7.694,40.041a1.015,1.015,0,1,1,1.015-1.015A1.016,1.016,0,0,1,7.694,40.041Zm9.667,0a1.015,1.015,0,1,1,1.015-1.015A1.016,1.016,0,0,1,17.362,40.041Z"
                  transform="translate(0 -21.155)"/>
        </g>
    </g>
</svg>
