<svg xmlns="http://www.w3.org/2000/svg" width="12.876" height="22" viewBox="0 0 12.876 22">
    <g id="sprayer" transform="translate(-106.166)">
        <g id="Group_71" data-name="Group 71" transform="translate(106.166)">
            <path id="Path_66" data-name="Path 66"
                  d="M118.436,7.936l.607-1.137-2.094-1.117V3.815h1.976V0h-9.41a2.046,2.046,0,0,0-2.044,2.044V4.826h2.236V6.96h-1.279l-2.262,4.792V22h10.783V11.751L114.687,6.96h-1.279V4.826h1.13V3.815h1.122V6.456ZM115.66,20.711h-8.2V14.919h8.2ZM113.87,8.249l1.79,3.792v1.59h-8.2V12.04l1.79-3.792ZM111,6.96V4.826h1.123V6.96H111Zm3.935-4.434h-1.682V3.537H108.76V2.044a.756.756,0,0,1,.755-.755h5.415Zm1.289-1.236h1.416V2.525H116.22Z"
                  transform="translate(-106.166)"/>
        </g>
    </g>
</svg>
