<svg xmlns="http://www.w3.org/2000/svg" width="17.331" height="22" viewBox="0 0 17.331 22">
    <g id="teapot" transform="translate(-54.333)">
        <path id="Path_71" data-name="Path 71"
              d="M69.3,4.125h-.845V2.607H65.247V0H58.916V2.607H54.333v1.62l1.375,2.363v11.7a4.937,4.937,0,0,0,.751,2.619L57.141,22h9.881l.682-1.091a4.937,4.937,0,0,0,.751-2.619V17.76H69.3A2.366,2.366,0,0,0,71.664,15.4V6.488A2.366,2.366,0,0,0,69.3,4.125ZM70.375,15.4A1.075,1.075,0,0,1,69.3,16.471h-.845V5.414H69.3a1.075,1.075,0,0,1,1.074,1.074Zm-4.067,5.314H57.856l-.3-.485A3.649,3.649,0,0,1,57,18.29v-.067a1.925,1.925,0,0,0,.645.111h8.88a1.925,1.925,0,0,0,.645-.111v.067a3.65,3.65,0,0,1-.555,1.936ZM55.632,3.9h5.806v10.4H57V6.243Zm8.326-2.607V2.607H60.205V1.289Zm3.208,13.005h-4.44V3.9h4.44Zm0,1.289V16.4a.645.645,0,0,1-.645.645h-8.88A.645.645,0,0,1,57,16.4v-.816Z"/>
    </g>
</svg>
