<svg xmlns="http://www.w3.org/2000/svg" width="19.39" height="22.061" viewBox="0 0 19.39 22.061">
    <g id="teddy" transform="translate(-31)">
        <path id="Path_68" data-name="Path 68"
              d="M33.585,14.219h1.293v2.027a3.231,3.231,0,1,0,4.613,4.4,5.825,5.825,0,0,0,2.409,0,3.231,3.231,0,1,0,4.613-4.4V14.219H47.8a2.585,2.585,0,1,0,0-5.171H45.529A5.78,5.78,0,0,0,46.482,6.4,3.232,3.232,0,0,0,45.866,0a3.184,3.184,0,0,0-2.175.85A5.706,5.706,0,0,0,37.7.85,3.185,3.185,0,0,0,35.524,0a3.232,3.232,0,0,0-.617,6.4,5.78,5.78,0,0,0,.953,2.644H33.585a2.585,2.585,0,0,0,0,5.171Zm3.232,6.549a1.939,1.939,0,1,1,1.939-1.939A1.941,1.941,0,0,1,36.817,20.769Zm3.176-1.347a3.223,3.223,0,0,0-1.237-3.175v-.088a1.939,1.939,0,1,1,3.878,0v.088A3.223,3.223,0,0,0,41.4,19.421,4.539,4.539,0,0,1,39.993,19.421Zm4.58,1.347a1.939,1.939,0,1,1,1.939-1.939A1.941,1.941,0,0,1,44.573,20.769ZM33.585,3.232a1.941,1.941,0,0,1,1.939-1.939,2.423,2.423,0,0,1,1.941,1.316,4.62,4.62,0,0,1,6.459,0,2.41,2.41,0,0,1,1.941-1.316,1.939,1.939,0,0,1,0,3.878h-.646v.646a4.531,4.531,0,0,1-3.878,4.478V8.937a1.939,1.939,0,1,0-1.293,0v1.357a4.531,4.531,0,0,1-3.878-4.478V5.171h-.646A1.941,1.941,0,0,1,33.585,3.232ZM40.049,7.11a.646.646,0,1,1,.646.646A.647.647,0,0,1,40.049,7.11Zm-6.463,3.232h3.458a5.8,5.8,0,0,0,7.3,0H47.8a1.293,1.293,0,1,1,0,2.585H45.219v2.737a3.231,3.231,0,0,0-1.329.008,3.232,3.232,0,0,0-6.39,0,3.231,3.231,0,0,0-1.329-.008V12.927H33.585a1.293,1.293,0,0,1,0-2.585Z"/>
        <path id="Path_69" data-name="Path 69" d="M301,90h1.293v1.293H301Z" transform="translate(-258.366 -86.122)"/>
        <path id="Path_70" data-name="Path 70" d="M181,90h1.293v1.293H181Z" transform="translate(-143.537 -86.122)"/>
    </g>
</svg>
