<svg xmlns="http://www.w3.org/2000/svg" width="15.77" height="22" viewBox="0 0 15.77 22">
    <g id="vase" transform="translate(-72.491)">
        <g id="Group_70" data-name="Group 70" transform="translate(72.491)">
            <path id="Path_65" data-name="Path 65"
                  d="M88.261,6.875A3.3,3.3,0,0,0,84.069,3.69a5.175,5.175,0,0,1,.2-.634L85.467,0H75.252l1.2,3.056a5.175,5.175,0,0,1,.2.624,3.307,3.307,0,0,0-2.17,6.227,8.781,8.781,0,0,0-.077,8.15L76.419,22H84.3l2.018-3.943a8.781,8.781,0,0,0-.071-8.138A3.3,3.3,0,0,0,88.261,6.875ZM83.578,1.289l-.466,1.19H77.607l-.466-1.19ZM77.986,3.768h4.747a6.36,6.36,0,0,0,1.12,4.908l.708.974c.127.174.244.352.354.534H75.8c.11-.181.227-.36.354-.534l.708-.974A6.36,6.36,0,0,0,77.986,3.768ZM73.78,6.875A2.02,2.02,0,0,1,75.8,4.857a1.992,1.992,0,0,1,1,.265,5.088,5.088,0,0,1-.974,2.8l-.64.88A2.015,2.015,0,0,1,73.78,6.875Zm9.731,13.836h-6.3L75.6,17.574h9.515Zm2.144-4.426H75.063a7.473,7.473,0,0,1-.281-1.27l1.483-1.038,2.085,1.45,2.07-1.448,2.058,1.449,2.086-1.451,1.38.966A7.474,7.474,0,0,1,85.656,16.285Zm-1.089-3.88-2.084,1.449L80.423,12.4l-2.074,1.451-2.085-1.45L74.742,13.47a7.435,7.435,0,0,1,.439-2H85.538a7.433,7.433,0,0,1,.431,1.914Zm.974-3.6L84.9,7.918a5.088,5.088,0,0,1-.973-2.776,1.991,1.991,0,0,1,1.033-.284,2.018,2.018,0,0,1,.586,3.949Z"
                  transform="translate(-72.491)"/>
        </g>
    </g>
</svg>
