<svg id="volleyball" xmlns="http://www.w3.org/2000/svg" width="22" height="22" viewBox="0 0 22 22">
    <g id="Group_68" data-name="Group 68">
        <path id="Path_58" data-name="Path 58"
              d="M11,0A11,11,0,1,0,22,11,11.013,11.013,0,0,0,11,0Zm9.507,9.573a12.253,12.253,0,0,0-9.435.631,11.176,11.176,0,0,1-3.2-3.227,13.59,13.59,0,0,1,12.211.88A9.507,9.507,0,0,1,20.507,9.573ZM11,1.375a9.618,9.618,0,0,1,8.095,4.438A14.78,14.78,0,0,0,7.2,5.769a11.22,11.22,0,0,1-.943-3.138A9.555,9.555,0,0,1,11,1.375ZM5.005,3.483a12.156,12.156,0,0,0,5.269,7.837,11.1,11.1,0,0,1-1.3,4.58A16.444,16.444,0,0,1,2.966,5.713,9.688,9.688,0,0,1,5.005,3.483Zm1.111,15.8A9.563,9.563,0,0,1,1.981,7.67a17.7,17.7,0,0,0,6.245,9.417A11.026,11.026,0,0,1,6.116,19.279Zm4.014,1.3a9.494,9.494,0,0,1-2.661-.637,12.155,12.155,0,0,0,4.169-8.478,11.227,11.227,0,0,1,4.067-1.155A15.709,15.709,0,0,1,10.13,20.581Zm2.067-.039a16.969,16.969,0,0,0,4.9-10.247,11.072,11.072,0,0,1,3.527.789A9.63,9.63,0,0,1,12.2,20.542Z"/>
    </g>
</svg>
